<svg id="Layer_1" data-name="Layer 1" xmlns="http://www.w3.org/2000/svg" viewBox="0 0 264.03 106.95"><defs><style>.cls-1{fill:#676c72;}</style></defs><title>dsc_logotype</title><path class="cls-1" d="M15.26,3.45h30.8q15.69,0,27.38,6.49a44.77,44.77,0,0,1,18,18q6.27,11.55,6.27,26.52T91.41,81a44.77,44.77,0,0,1-18,18q-11.7,6.5-27.38,6.49H15.26ZM46.06,94Q64.17,94,74.79,83.6T85.42,54.5q0-18.68-10.63-29.09T46.06,15H27.23V94Z" transform="translate(-15.26 -1.05)"/><path class="cls-1" d="M118.84,100.45q-10-7.28-13.69-20.39l11.55-4.71a29.75,29.75,0,0,0,9,15,22.41,22.41,0,0,0,15.41,5.84,23.65,23.65,0,0,0,15-4.77,15.65,15.65,0,0,0,6.13-13.05A15.07,15.07,0,0,0,157,66.58q-5.22-4.63-17.05-8.62l-6.41-2.29a51.13,51.13,0,0,1-17.69-10.12Q109,39.28,109,28.15a24.45,24.45,0,0,1,4-13.48,28.68,28.68,0,0,1,11.12-9.91,37,37,0,0,1,31.38-.43,32.14,32.14,0,0,1,10.48,8,30.09,30.09,0,0,1,5.49,9.27l-11.41,4.85a19.09,19.09,0,0,0-6.49-9.56q-5.06-4.27-13.33-4.27A20.88,20.88,0,0,0,126.82,17a13.65,13.65,0,0,0-5.56,11.12A12,12,0,0,0,126,37.92q4.71,3.78,14.26,7.06l6.7,2.28Q159.91,52,167.18,59t7.28,19.19q0,9.84-5.07,16.54a29.8,29.8,0,0,1-12.76,9.84,41.61,41.61,0,0,1-15.83,3.14A36.44,36.44,0,0,1,118.84,100.45Z" transform="translate(-15.26 -1.05)"/><path class="cls-1" d="M212,101a50.46,50.46,0,0,1-19-19.18A54.1,54.1,0,0,1,186,54.66a54.09,54.09,0,0,1,6.92-27.16A50.53,50.53,0,0,1,212,8.32a53,53,0,0,1,27-7,49.48,49.48,0,0,1,20.89,4.35A48.48,48.48,0,0,1,276.29,18l-8.69,8.42a38.14,38.14,0,0,0-12.77-10.27,36.64,36.64,0,0,0-15.9-3.28,41,41,0,0,0-20.39,5.21,38.75,38.75,0,0,0-14.76,14.68,42.92,42.92,0,0,0-5.49,21.89,42.93,42.93,0,0,0,5.49,21.9,38.75,38.75,0,0,0,14.76,14.68,40.84,40.84,0,0,0,20.39,5.21q18.54,0,31.52-15.26l8.84,8.56a51.56,51.56,0,0,1-17.54,13.33A55.42,55.42,0,0,1,212,101Z" transform="translate(-15.26 -1.05)"/></svg>